<svg width="24" height="24" viewBox="0 0 24 24" fill="none" xmlns="http://www.w3.org/2000/svg">
<g clip-path="url(#clip0_1033_23073)">
<path d="M21.792 18.7035C21.442 19.5187 21.0097 20.296 20.502 21.0235C19.823 21.991 19.2675 22.6605 18.8395 23.0325C18.176 23.6425 17.4645 23.9555 16.703 23.973C16.1565 23.973 15.4975 23.8175 14.73 23.502C13.96 23.188 13.2525 23.032 12.6055 23.032C11.927 23.032 11.1995 23.188 10.421 23.502C9.6415 23.8175 9.0135 23.982 8.5335 23.998C7.8035 24.0295 7.0755 23.708 6.3485 23.0325C5.885 22.6275 5.3055 21.9345 4.6105 20.9525C3.865 19.9035 3.252 18.6875 2.772 17.3005C2.258 15.803 2 14.3525 2 12.9485C2 11.34 2.3475 9.953 3.0435 8.7905C3.591 7.8565 4.3185 7.1205 5.2295 6.5795C6.12324 6.04467 7.14302 5.75686 8.1845 5.7455C8.7645 5.7455 9.525 5.925 10.4705 6.2775C11.413 6.631 12.018 6.8105 12.2835 6.8105C12.4815 6.8105 13.154 6.6005 14.2935 6.1825C15.3715 5.7945 16.281 5.634 17.026 5.6975C19.0455 5.8605 20.5625 6.6565 21.571 8.0905C19.7655 9.1845 18.872 10.717 18.89 12.683C18.906 14.2145 19.4615 15.489 20.5535 16.5005C21.0485 16.9705 21.601 17.3335 22.2155 17.591C22.0867 17.9664 21.9454 18.3374 21.792 18.7035V18.7035ZM17.161 0.4805C17.161 1.6805 16.7225 2.8015 15.8485 3.8385C14.7935 5.072 13.518 5.7845 12.1345 5.672C12.1159 5.52105 12.1066 5.3691 12.1065 5.217C12.1065 4.065 12.608 2.832 13.499 1.8235C13.944 1.313 14.509 0.8885 15.195 0.55C15.88 0.2165 16.527 0.032 17.136 0C17.1535 0.1605 17.161 0.321 17.161 0.48V0.4805Z" fill="white"/>
</g>
<defs>
<clipPath id="clip0_1033_23073">
<rect width="24" height="24" fill="white"/>
</clipPath>
</defs>
</svg>
