<svg width="102" height="66" viewBox="0 0 102 66" fill="none" xmlns="http://www.w3.org/2000/svg">
<path fill-rule="evenodd" clip-rule="evenodd" d="M14.6993 60.9894C14.6868 61.0138 14.6625 61.0625 14.6506 61.0993C13.3332 63.5878 10.7467 65.2831 7.7947 65.2831C3.51296 65.2831 0 61.6965 0 57.2685C0 52.8649 3.51296 49.2539 7.7947 49.2539C10.7592 49.2539 13.3576 50.986 14.6625 53.5114C14.6993 53.5601 14.7112 53.5845 14.7481 53.6576C14.7605 53.67 12.2596 55.4752 12.2352 55.439C12.2227 55.3902 12.2108 55.3534 12.1865 55.329C11.4663 53.5357 9.75914 52.3402 7.7947 52.3771C5.17192 52.4014 3.01265 54.5726 3.01265 57.2685C3.01265 59.9888 5.17192 62.1849 7.7947 62.1849C9.69793 62.1849 11.357 61.0138 12.1128 59.3547C12.1496 59.2936 12.1621 59.2448 12.1865 59.1961L14.6993 60.9894Z" fill="#13101E"/>
<path fill-rule="evenodd" clip-rule="evenodd" d="M17.9316 49.4004H20.9324V54.9996H28.8132V49.4004H31.8383V64.978H28.8132V58.1346H20.9324V64.978H17.9316V49.4004Z" fill="#13101E"/>
<path fill-rule="evenodd" clip-rule="evenodd" d="M74.1934 64.978V49.4004H85.0866V52.5473H77.2307V55.6579H84.489V58.7686H77.2307V61.8792H86.1965V64.978H74.1934Z" fill="#13101E"/>
<path fill-rule="evenodd" clip-rule="evenodd" d="M90.4531 64.978V49.4004H93.5027V61.8792H101.969V64.978H90.4531Z" fill="#13101E"/>
<path fill-rule="evenodd" clip-rule="evenodd" d="M57.821 64.978H57.7235H54.7715V49.4004H54.9908H59.004L65.6769 58.7686V49.4004H68.7021V64.978H66.2867L57.821 53.2306V64.978Z" fill="#13101E"/>
<path fill-rule="evenodd" clip-rule="evenodd" d="M43.2927 52.5473L40.6337 58.7686H46.0742L43.2927 52.5473ZM39.267 61.8792L37.8766 64.978H34.2656L41.1702 49.4004H45.3909L52.3441 64.978H48.7332L47.3309 61.8792H39.267Z" fill="#13101E"/>
<path fill-rule="evenodd" clip-rule="evenodd" d="M52.5522 43.4015C49.2804 45.2933 45.3662 46.4178 41.1959 46.4178C32.6631 46.4178 25.1895 41.7659 21.1473 34.8682C21.1473 34.8362 21.1161 34.8362 21.1161 34.8042C21.1161 34.7721 21.0833 34.7721 21.0833 34.7401L24.3553 33.0405L27.6271 31.3713C27.6599 31.4049 27.6927 31.4354 27.724 31.501C30.5147 36.0232 35.5192 39.0395 41.1959 39.0395C43.0257 39.0395 44.7897 38.7191 46.3616 38.2049C42.8647 34.1954 40.7475 28.9348 40.7475 23.1921C40.7475 17.4829 42.8334 12.2223 46.2975 8.17925C44.7256 7.63458 42.9929 7.34622 41.1959 7.34622C35.5833 7.34622 30.3865 10.361 27.5318 15.2051C27.499 15.2371 27.499 15.2707 27.499 15.3012L20.9238 11.9019C20.9551 11.8379 20.9879 11.7738 21.0192 11.7402C25.0301 4.71592 32.5991 0 41.1959 0C45.3662 0 49.2804 1.12291 52.5522 3.04834C55.8241 1.12291 59.7383 0 63.9071 0C72.5041 0 80.0746 4.71592 84.0841 11.7402C84.1161 11.7738 84.1482 11.8379 84.1802 11.9019L77.6045 15.3012C77.6045 15.2707 77.6045 15.2371 77.5724 15.2051C74.7179 10.361 69.5213 7.34622 63.9071 7.34622C62.1116 7.34622 60.3789 7.63458 58.807 8.17925C62.2711 12.2223 64.357 17.4829 64.357 23.1921C64.357 28.9348 62.2398 34.1954 58.7429 38.2049C60.3148 38.7191 62.0788 39.0395 63.9071 39.0395C69.5854 39.0395 74.5897 36.0232 77.3802 31.501C77.4122 31.4354 77.4443 31.4049 77.4763 31.3713L80.7474 33.0405L84.02 34.7401C84.02 34.7721 83.988 34.7721 83.988 34.8042C83.988 34.8362 83.9559 34.8362 83.9559 34.8682C79.9144 41.7659 72.44 46.4178 63.9071 46.4178C59.7383 46.4178 55.8241 45.2933 52.5522 43.4015ZM52.5522 34.1954C49.857 31.3408 48.1256 27.4595 48.1256 23.1921C48.1256 18.9903 49.7616 15.173 52.5522 12.3185C55.3429 15.173 56.9789 18.9903 56.9789 23.1921C56.9789 27.4595 55.246 31.3408 52.5522 34.1954Z" fill="#13101E"/>
</svg>
