<svg width="76" height="50" viewBox="0 0 76 50" fill="none" xmlns="http://www.w3.org/2000/svg">
<path d="M53.265 1.51603C56.018 0.163927 57.3823 0.341362 57.413 1.71186C57.4498 3.49221 57.1866 5.85972 56.9969 7.57279C55.9751 16.8836 54.2682 24.4918 54.1398 34.0516C58.6364 22.4105 62.4051 14.3196 67.2626 4.35478C68.8045 1.17955 69.7894 1.77304 71.0557 1.21015C75.9868 -0.986139 76.1704 0.359762 75.5279 3.04557C73.1359 12.9933 67.0117 44.3143 66.0759 49.1372C65.8066 50.5326 64.2895 49.941 63.8978 49.3954C62.1421 46.9666 60.1599 46.9286 60.38 45.3135C61.4813 37.2726 65.4456 17.0984 66.4796 12.3447C61.212 23.144 55.7488 36.6444 52.9406 44.2992C52.3472 45.9246 51.2643 45.8054 50.5914 44.6161C49.6431 42.9453 47.8016 42.0924 47.4956 40.1181C46.5352 33.8413 48.597 21.877 48.8844 14.308C46.0152 22.5763 41.2004 38.629 39.0897 45.8817C38.221 48.8826 35.321 48.3931 36.0919 45.4683C39.2976 33.2967 46.2048 11.7696 49.1903 4.0305C49.8942 2.20727 51.7355 2.26845 53.265 1.51603Z" fill="#B00020"/>
<path d="M35.78 0.0237841C34.8502 -0.202529 32.1522 1.25354 30.4942 1.54103C29.9681 1.63279 29.4663 2.18948 29.2889 2.58724C26.6337 8.68678 24.2539 14.5012 22.1921 19.798C19.5553 20.2483 16.472 20.8412 13.0215 21.6162C15.4931 15.2763 17.9892 9.02314 20.4241 3.00927C21.6232 0.0481694 18.4664 -0.23322 17.2428 2.76457C15.6521 6.66173 12.6727 13.9634 9.37509 22.474C6.95239 23.068 4.38294 23.7471 1.69713 24.5229C-0.254555 25.0863 -0.333987 25.6063 0.510302 26.7767C0.975227 27.4284 1.93575 27.3627 2.37619 27.8271C3.51417 29.0306 4.2055 30.47 6.24264 30.6879C4.42561 35.5485 2.60861 40.561 0.962921 45.3873C-0.0709959 48.4169 2.87168 49.0366 4.00357 45.8308C5.82669 40.663 7.74772 35.4328 9.72379 30.218C11.3695 29.8355 15.3522 28.9777 19.029 28.18C16.1108 36.1785 14.1897 42.253 13.4618 45.2098C13.3272 45.7787 13.5535 46.0944 13.6759 46.3263C14.6608 47.7597 15.5969 47.8184 16.8633 49.5907C17.206 50.074 18.3562 50.3347 18.7476 49.1447C21.4517 40.9767 24.2354 33.3129 26.8293 26.4424C27.906 26.2069 29.8454 25.7389 31.0323 23.9677C33.1429 20.8242 33.7486 21.4618 34.2565 20.5062C34.8927 19.3065 34.4705 18.1802 32.2193 18.4584C32.2193 18.4584 31.3688 18.519 29.7965 18.6982C32.2926 12.2714 34.4767 6.82034 36.049 2.66638C36.5876 1.25963 36.6549 0.231808 35.78 0.0237841Z" fill="#B00020"/>
<path d="M32.0974 41.7077C32.6786 43.1766 34.4956 42.7318 33.8043 40.959C33.1007 39.1528 31.351 33.7159 30.8921 31.9643C30.2681 29.6041 32.9722 30.2495 31.6018 31.7925C30.4272 33.1194 29.644 33.6511 27.4722 36.1741C25.3738 38.6096 25.9428 41.7702 28.188 42.4683C30.7208 43.2562 32.9539 40.4653 34.3365 38.4177C35.6763 36.4348 34.3793 35.2718 33.0273 36.444C32.1585 37.1977 31.1552 38.3552 30.1395 38.9793C29.3136 39.4815 28.6651 38.9419 29.7664 37.426C31.045 35.6708 32.4766 34.2001 33.5411 32.5414C35.713 29.1613 31.4182 27.2128 29.5706 29.4084C28.5794 30.5788 28.8303 31.7278 29.0995 32.7139C29.5339 34.2935 31.1491 39.3359 32.0974 41.7077Z" fill="#B00020"/>
</svg>
