<svg width="213" height="23" viewBox="0 0 213 23" fill="none" xmlns="http://www.w3.org/2000/svg">
<path d="M9.43423 18.1754C10.1174 18.1754 10.7253 18.0649 11.2578 17.8439C11.8003 17.6128 12.2574 17.2863 12.6292 16.8643C13.0009 16.4423 13.2822 15.9299 13.4731 15.3271C13.674 14.7142 13.7745 14.021 13.7745 13.2474V0.241613H18.8683V13.2474C18.8683 14.5937 18.6473 15.8295 18.2052 16.9547C17.7732 18.08 17.1503 19.0495 16.3365 19.8633C15.5227 20.6771 14.5331 21.3101 13.3676 21.7622C12.2022 22.2143 10.891 22.4403 9.43423 22.4403C7.96738 22.4403 6.65123 22.2143 5.48578 21.7622C4.32033 21.3101 3.33071 20.6771 2.51691 19.8633C1.7031 19.0495 1.08019 18.08 0.648175 16.9547C0.216156 15.8295 0.000146353 14.5937 0.000146353 13.2474V0.241613H5.09395V13.2323C5.09395 14.0059 5.1894 14.6992 5.38029 15.312C5.58123 15.9149 5.86756 16.4323 6.2393 16.8643C6.61104 17.2863 7.06315 17.6128 7.59564 17.8439C8.13817 18.0649 8.75104 18.1754 9.43423 18.1754ZM42.0172 0.241613V22.1992H39.3648C38.973 22.1992 38.6414 22.1389 38.3701 22.0184C38.1089 21.8878 37.8477 21.6667 37.5865 21.3553L27.2331 8.25908C27.2733 8.65091 27.2984 9.03269 27.3085 9.40443C27.3286 9.76612 27.3386 10.1077 27.3386 10.4292V22.1992H22.8476V0.241613H25.5301C25.7512 0.241613 25.937 0.25166 26.0878 0.271754C26.2385 0.291847 26.3741 0.332035 26.4947 0.392317C26.6152 0.442552 26.7308 0.517904 26.8413 0.618374C26.9518 0.718843 27.0774 0.854477 27.218 1.02527L37.6618 14.2119C37.6116 13.7899 37.5764 13.383 37.5563 12.9912C37.5363 12.5893 37.5262 12.2126 37.5262 11.8609V0.241613H42.0172ZM51.4014 22.1992H46.2774V0.241613H51.4014V22.1992ZM71.4163 4.28049H65.2374V22.1992H60.1436V4.28049H53.9647V0.241613H71.4163V4.28049ZM79.1286 4.15992V9.28387H86.0308V13.0515H79.1286V18.2809H88.1407V22.1992H74.0046V0.241613H88.1407V4.15992H79.1286ZM111.206 11.2129C111.206 12.8003 110.929 14.2672 110.377 15.6134C109.834 16.9497 109.066 18.1101 108.071 19.0947C107.076 20.0693 105.876 20.8328 104.469 21.3854C103.073 21.928 101.52 22.1992 99.8125 22.1992H91.2826V0.241613H99.8125C101.52 0.241613 103.073 0.517904 104.469 1.07049C105.876 1.62307 107.076 2.38664 108.071 3.36119C109.066 4.33575 109.834 5.49617 110.377 6.84246C110.929 8.1787 111.206 9.63551 111.206 11.2129ZM105.991 11.2129C105.991 10.1278 105.851 9.14823 105.569 8.27415C105.288 7.40006 104.881 6.66161 104.349 6.0588C103.826 5.44593 103.183 4.97875 102.42 4.65725C101.656 4.3257 100.787 4.15992 99.8125 4.15992H96.4066V18.2809H99.8125C100.787 18.2809 101.656 18.1202 102.42 17.7987C103.183 17.4671 103.826 16.9999 104.349 16.3971C104.881 15.7842 105.288 15.0408 105.569 14.1667C105.851 13.2926 105.991 12.308 105.991 11.2129ZM141.111 11.2129C141.111 12.8003 140.835 14.2672 140.282 15.6134C139.74 16.9497 138.971 18.1101 137.976 19.0947C136.982 20.0693 135.781 20.8328 134.375 21.3854C132.978 21.928 131.426 22.1992 129.718 22.1992H121.188V0.241613H129.718C131.426 0.241613 132.978 0.517904 134.375 1.07049C135.781 1.62307 136.982 2.38664 137.976 3.36119C138.971 4.33575 139.74 5.49617 140.282 6.84246C140.835 8.1787 141.111 9.63551 141.111 11.2129ZM135.897 11.2129C135.897 10.1278 135.756 9.14823 135.475 8.27415C135.193 7.40006 134.787 6.66161 134.254 6.0588C133.732 5.44593 133.089 4.97875 132.325 4.65725C131.561 4.3257 130.692 4.15992 129.718 4.15992H126.312V18.2809H129.718C130.692 18.2809 131.561 18.1202 132.325 17.7987C133.089 17.4671 133.732 16.9999 134.254 16.3971C134.787 15.7842 135.193 15.0408 135.475 14.1667C135.756 13.2926 135.897 12.308 135.897 11.2129ZM149.241 4.15992V9.28387H156.144V13.0515H149.241V18.2809H158.253V22.1992H144.117V0.241613H158.253V4.15992H149.241ZM173 13.805L170.965 7.79189C170.814 7.41011 170.654 6.96302 170.483 6.45063C170.312 5.92819 170.141 5.36556 169.97 4.76274C169.82 5.3756 169.659 5.94326 169.488 6.4657C169.317 6.98814 169.157 7.44025 169.006 7.82204L166.987 13.805H173ZM181.092 22.1992H177.144C176.702 22.1992 176.345 22.0987 176.074 21.8978C175.803 21.6868 175.597 21.4206 175.456 21.0991L174.16 17.2712H165.811L164.515 21.0991C164.404 21.3804 164.204 21.6366 163.912 21.8677C163.631 22.0887 163.279 22.1992 162.857 22.1992H158.879L167.378 0.241613H172.593L181.092 22.1992ZM196.056 18.1302V22.1992H182.824V0.241613H187.917V18.1302H196.056ZM210.791 4.70246C210.64 4.94358 210.48 5.12443 210.309 5.24499C210.148 5.36556 209.937 5.42584 209.676 5.42584C209.445 5.42584 209.194 5.35551 208.922 5.21485C208.661 5.06415 208.36 4.89837 208.018 4.71753C207.687 4.53668 207.305 4.37593 206.873 4.23528C206.441 4.08457 205.948 4.00922 205.396 4.00922C204.441 4.00922 203.728 4.21518 203.256 4.62711C202.794 5.02898 202.563 5.57654 202.563 6.26978C202.563 6.71185 202.703 7.07856 202.985 7.36992C203.266 7.66128 203.633 7.91246 204.085 8.12344C204.547 8.33443 205.069 8.53035 205.652 8.71119C206.245 8.88199 206.848 9.0779 207.461 9.29894C208.073 9.50992 208.671 9.7611 209.254 10.0525C209.847 10.3438 210.369 10.7156 210.821 11.1677C211.283 11.6198 211.655 12.1724 211.936 12.8254C212.218 13.4684 212.358 14.2471 212.358 15.1613C212.358 16.1761 212.183 17.1255 211.831 18.0096C211.479 18.8938 210.967 19.6674 210.294 20.3305C209.631 20.9835 208.807 21.501 207.822 21.8827C206.848 22.2545 205.737 22.4403 204.492 22.4403C203.808 22.4403 203.11 22.37 202.397 22.2294C201.694 22.0887 201.01 21.8928 200.347 21.6416C199.684 21.3804 199.061 21.074 198.479 20.7223C197.896 20.3707 197.388 19.9788 196.956 19.5468L198.463 17.1657C198.584 16.9949 198.74 16.8542 198.931 16.7437C199.132 16.6232 199.348 16.5629 199.579 16.5629C199.88 16.5629 200.181 16.6583 200.483 16.8492C200.794 17.0401 201.141 17.2511 201.523 17.4822C201.915 17.7133 202.362 17.9242 202.864 18.1151C203.366 18.306 203.959 18.4015 204.642 18.4015C205.567 18.4015 206.285 18.2005 206.797 17.7987C207.31 17.3867 207.566 16.7387 207.566 15.8546C207.566 15.3422 207.425 14.9252 207.144 14.6037C206.863 14.2822 206.491 14.016 206.029 13.805C205.577 13.594 205.059 13.4081 204.477 13.2474C203.894 13.0866 203.296 12.9108 202.683 12.7199C202.07 12.519 201.473 12.2779 200.89 11.9965C200.307 11.7052 199.785 11.3284 199.322 10.8663C198.87 10.3941 198.504 9.81133 198.222 9.11809C197.941 8.41481 197.8 7.55077 197.8 6.52598C197.8 5.70213 197.966 4.89837 198.298 4.11471C198.629 3.33105 199.117 2.63279 199.76 2.01992C200.403 1.40706 201.191 0.919781 202.126 0.558091C203.06 0.186354 204.13 0.000486142 205.336 0.000486142C206.009 0.000486142 206.662 0.0557445 207.295 0.166261C207.938 0.266731 208.546 0.422458 209.118 0.633443C209.691 0.834383 210.223 1.08053 210.716 1.37189C211.218 1.65321 211.665 1.97471 212.057 2.3364L210.791 4.70246Z" fill="black"/>
</svg>
