<svg width="24" height="24" viewBox="0 0 24 24" fill="none" xmlns="http://www.w3.org/2000/svg">
<g clip-path="url(#clip0_1_7342)">
<path d="M25.0247 8.00337C24.949 7.92774 24.8464 7.88525 24.7394 7.88525C24.6324 7.88525 24.5298 7.92774 24.4541 8.00337L22.1218 10.3357L15.8736 3.9558L18.1401 1.68935C18.1777 1.65191 18.2075 1.60742 18.2279 1.55844C18.2483 1.50946 18.2588 1.45693 18.2588 1.40388C18.2589 1.35083 18.2485 1.29828 18.2282 1.24926C18.2079 1.20023 18.1782 1.15569 18.1407 1.11817C18.1031 1.08066 18.0586 1.05091 18.0096 1.03063C17.9605 1.01036 17.908 0.999946 17.8549 1C17.8019 1.00005 17.7494 1.01057 17.7004 1.03095C17.6514 1.05133 17.6069 1.08116 17.5695 1.11875L14.4885 4.1997C14.2863 4.40192 14.1294 4.64492 14.0285 4.91251C13.9275 5.18011 13.8847 5.46615 13.903 5.75157H13.363C12.9605 5.75173 12.5627 5.83668 12.1953 6.00089C11.8279 6.1651 11.4993 6.40487 11.2308 6.70459L11.1524 6.7922C10.4103 6.42046 9.59724 6.21214 8.76788 6.18129C8.86689 5.83533 8.87162 5.46918 8.78157 5.12077C8.69153 4.77236 8.50998 4.45436 8.25572 4.1997L5.17477 1.11875C5.09909 1.04317 4.99649 1.00072 4.88952 1.00075C4.78256 1.00079 4.67999 1.04329 4.60435 1.11893C4.52872 1.19456 4.48621 1.29714 4.48618 1.4041C4.48615 1.51107 4.52859 1.61367 4.60418 1.68935L6.90429 3.98946L0.656174 10.3694L-1.70985 8.00337C-1.78553 7.92778 -1.88813 7.88534 -1.99509 7.88537C-2.10205 7.8854 -2.20463 7.92791 -2.28026 8.00354C-2.3559 8.07918 -2.3984 8.18175 -2.39844 8.28872C-2.39847 8.39568 -2.35603 8.49828 -2.28044 8.57396L0.303257 11.1577C0.337351 11.2162 0.386083 11.265 0.444676 11.2991L0.800509 11.6549C1.05525 11.909 1.37324 12.0905 1.7216 12.1805C2.06995 12.2705 2.43604 12.2659 2.78201 12.1671C2.79215 12.4415 2.82182 12.7148 2.87079 12.985C2.68293 13.0713 2.51196 13.1904 2.36588 13.3367L1.48021 14.2224C1.23572 14.4669 1.06922 14.7784 1.00176 15.1175C0.934311 15.4566 0.968934 15.8081 1.10126 16.1276C1.23358 16.447 1.45765 16.7201 1.74515 16.9122C2.03265 17.1043 2.37065 17.2068 2.71642 17.2068C2.77085 17.2068 2.82483 17.2041 2.87838 17.1992C2.85575 17.4413 2.88392 17.6855 2.96108 17.916C3.03823 18.1466 3.16268 18.3586 3.32645 18.5383C3.49023 18.7181 3.68972 18.8616 3.91216 18.9598C4.1346 19.058 4.3751 19.1087 4.61826 19.1086C4.67268 19.1086 4.72667 19.1059 4.78021 19.101C4.7576 19.3431 4.78578 19.5873 4.86294 19.8179C4.9401 20.0485 5.06455 20.2604 5.22832 20.4401C5.39209 20.6199 5.59157 20.7634 5.81401 20.8616C6.03645 20.9599 6.27694 21.0105 6.52009 21.0105C6.57452 21.0105 6.6285 21.0077 6.68205 21.0029C6.64908 21.3607 6.72718 21.72 6.90572 22.0318C7.08427 22.3437 7.35457 22.5929 7.67984 22.7457C8.00512 22.8984 8.36956 22.9472 8.72354 22.8854C9.07753 22.8236 9.40387 22.6542 9.65814 22.4002L10.2407 21.8177L10.8232 22.4003C11.0677 22.6447 11.3792 22.8112 11.7183 22.8786C12.0574 22.946 12.4089 22.9114 12.7283 22.7791C13.0477 22.6468 13.3208 22.4227 13.5129 22.1353C13.705 21.8479 13.8076 21.5099 13.8077 21.1642C13.8077 21.11 13.805 21.0562 13.8001 21.0029C13.8534 21.0078 13.9071 21.0105 13.9612 21.0105C14.4249 21.0104 14.8695 20.8262 15.1974 20.4984C15.5252 20.1705 15.7094 19.7258 15.7095 19.2622C15.7095 19.208 15.7068 19.1543 15.7019 19.1011C15.7552 19.1059 15.8089 19.1086 15.863 19.1086C16.3267 19.1086 16.7713 18.9244 17.0992 18.5965C17.4271 18.2687 17.6113 17.824 17.6113 17.3604C17.6113 17.3062 17.6086 17.2525 17.6038 17.1993C17.657 17.2041 17.7107 17.2068 17.7648 17.2068C18.1106 17.2068 18.4486 17.1043 18.7361 16.9122C19.0236 16.7201 19.2477 16.4471 19.38 16.1276C19.5124 15.8081 19.547 15.4566 19.4795 15.1175C19.4121 14.7784 19.2456 14.4669 19.0011 14.2224L18.5121 13.7334C19.0808 13.3007 19.5664 12.7685 19.9452 12.1625C20.2932 12.2649 20.6624 12.2719 21.014 12.1826C21.3656 12.0933 21.6868 11.911 21.9437 11.6549L25.0247 8.57396C25.1003 8.49829 25.1428 8.39567 25.1428 8.28867C25.1428 8.18166 25.1003 8.07904 25.0247 8.00337ZM1.3711 11.0843L1.22677 10.94L7.4749 4.56006L7.68513 4.77029C7.91179 4.99744 8.03908 5.30522 8.03908 5.6261C8.03908 5.94699 7.91179 6.25477 7.68513 6.48191L3.08272 11.0843C2.85558 11.311 2.5478 11.4383 2.22691 11.4383C1.90603 11.4383 1.59824 11.311 1.3711 11.0843ZM2.71642 16.3999C2.53025 16.3999 2.34827 16.3447 2.19348 16.2413C2.03869 16.1378 1.91804 15.9908 1.8468 15.8188C1.77556 15.6468 1.75691 15.4575 1.79322 15.2749C1.82954 15.0923 1.91917 14.9246 2.0508 14.793L2.93648 13.9073C3.02385 13.8197 3.12763 13.7502 3.24188 13.7028C3.35613 13.6554 3.47861 13.6309 3.60231 13.6308C3.72602 13.6308 3.84853 13.6551 3.96283 13.7024C4.07713 13.7497 4.18099 13.8191 4.26846 13.9065C4.35594 13.994 4.42531 14.0979 4.47262 14.2122C4.51993 14.3265 4.54425 14.449 4.54419 14.5727C4.54412 14.6964 4.51968 14.8189 4.47225 14.9331C4.42482 15.0474 4.35533 15.1511 4.26777 15.2385L3.38204 16.1242C3.29484 16.2119 3.1911 16.2814 3.07685 16.3287C2.9626 16.3761 2.84009 16.4003 2.71642 16.3999ZM4.61826 18.3018C4.43208 18.3017 4.25009 18.2465 4.0953 18.1431C3.94051 18.0396 3.81986 17.8926 3.74861 17.7206C3.67736 17.5486 3.65871 17.3593 3.69502 17.1767C3.73133 16.9941 3.82096 16.8264 3.95258 16.6947L4.83831 15.8091C5.01495 15.6331 5.25422 15.5344 5.50359 15.5346C5.75296 15.5348 5.99206 15.634 6.16839 15.8103C6.34473 15.9866 6.44389 16.2257 6.44412 16.4751C6.44435 16.7244 6.34562 16.9637 6.16961 17.1404L5.28388 18.026C5.19667 18.1137 5.09294 18.1832 4.97869 18.2306C4.86443 18.2779 4.74193 18.3021 4.61826 18.3018ZM6.52009 20.2036C6.39642 20.2039 6.27392 20.1797 6.15966 20.1324C6.04541 20.0851 5.94168 20.0156 5.85447 19.9279C5.6782 19.7512 5.5792 19.5118 5.57919 19.2622C5.57918 19.0126 5.67816 18.7733 5.85442 18.5966L6.74015 17.7109C6.82752 17.6233 6.9313 17.5538 7.04556 17.5064C7.15981 17.4589 7.2823 17.4345 7.40602 17.4344C7.52973 17.4343 7.65224 17.4586 7.76655 17.506C7.88086 17.5533 7.98473 17.6227 8.0722 17.7101C8.15968 17.7976 8.22905 17.9015 8.27636 18.0158C8.32366 18.1301 8.34797 18.2526 8.34789 18.3763C8.34781 18.5001 8.32334 18.6225 8.27589 18.7368C8.22843 18.851 8.15893 18.9548 8.07134 19.0422L7.18571 19.9279C7.09851 20.0156 6.99478 20.0851 6.88052 20.1324C6.76627 20.1797 6.64376 20.2039 6.52009 20.2036ZM9.97317 20.944L9.0876 21.8297C8.91098 22.0058 8.67168 22.1046 8.42225 22.1044C8.17282 22.1043 7.93366 22.0051 7.75728 21.8287C7.58091 21.6524 7.48174 21.4132 7.48156 21.1638C7.48137 20.9143 7.58019 20.675 7.75631 20.4984L8.64193 19.6128C8.72928 19.5251 8.83306 19.4555 8.94734 19.408C9.06162 19.3605 9.18415 19.3359 9.30792 19.3358C9.43168 19.3357 9.55426 19.36 9.66863 19.4073C9.783 19.4546 9.88691 19.524 9.97443 19.6115C10.0619 19.699 10.1313 19.803 10.1787 19.9173C10.226 20.0317 10.2503 20.1543 10.2501 20.278C10.25 20.4018 10.2255 20.5243 10.178 20.6386C10.1304 20.7529 10.0609 20.8567 9.97317 20.944ZM18.7063 15.4586C18.7063 15.6448 18.651 15.8268 18.5476 15.9816C18.4442 16.1364 18.2971 16.2571 18.1251 16.3283C17.9531 16.3995 17.7638 16.4182 17.5812 16.3818C17.3986 16.3455 17.2309 16.2558 17.0992 16.1241L14.2084 13.2334C14.171 13.1959 14.1265 13.1662 14.0775 13.1458C14.0286 13.1255 13.9761 13.1151 13.9231 13.1151C13.8701 13.1151 13.8176 13.1255 13.7686 13.1458C13.7196 13.166 13.6751 13.1958 13.6377 13.2332C13.6002 13.2707 13.5705 13.3152 13.5502 13.3642C13.5299 13.4132 13.5195 13.4657 13.5195 13.5187C13.5195 13.5717 13.53 13.6241 13.5503 13.6731C13.5706 13.7221 13.6003 13.7665 13.6378 13.804L16.5286 16.6947C16.6163 16.7821 16.6859 16.8859 16.7334 17.0002C16.781 17.1144 16.8055 17.237 16.8056 17.3607C16.8057 17.4845 16.7814 17.6071 16.7341 17.7214C16.6868 17.8358 16.6174 17.9397 16.5299 18.0272C16.4424 18.1148 16.3385 18.1842 16.2241 18.2315C16.1097 18.2788 15.9871 18.3031 15.8634 18.3029C15.7396 18.3028 15.6171 18.2783 15.5028 18.2308C15.3885 18.1833 15.2847 18.1137 15.1974 18.026L12.3067 15.1352C12.231 15.0595 12.1284 15.017 12.0214 15.017C11.9144 15.017 11.8117 15.0595 11.7361 15.1352C11.6604 15.2109 11.6179 15.3135 11.6179 15.4205C11.6179 15.5275 11.6604 15.6301 11.7361 15.7058L14.6268 18.5966C14.7144 18.6839 14.7838 18.7877 14.8313 18.902C14.8787 19.0162 14.9032 19.1387 14.9032 19.2624C14.9033 19.3861 14.879 19.5086 14.8317 19.6229C14.7844 19.7372 14.715 19.841 14.6275 19.9285C14.5401 20.016 14.4362 20.0853 14.3219 20.1327C14.2076 20.18 14.0851 20.2043 13.9614 20.2042C13.8377 20.2042 13.7153 20.1797 13.601 20.1323C13.4868 20.0849 13.383 20.0154 13.2956 19.9278L10.4048 17.037C10.3674 16.9995 10.3229 16.9697 10.2739 16.9493C10.225 16.929 10.1725 16.9185 10.1195 16.9184C10.0664 16.9184 10.0139 16.9288 9.96492 16.9491C9.91592 16.9693 9.8714 16.999 9.83389 17.0365C9.79638 17.074 9.76663 17.1185 9.74634 17.1675C9.72605 17.2165 9.71561 17.269 9.71562 17.322C9.71563 17.375 9.72609 17.4275 9.74641 17.4765C9.76673 17.5255 9.7965 17.57 9.83402 17.6075L12.7248 20.4983C12.8122 20.5856 12.8816 20.6894 12.9289 20.8036C12.9762 20.9178 13.0006 21.0402 13.0006 21.1638C13.0006 21.2874 12.9763 21.4098 12.929 21.5241C12.8817 21.6383 12.8124 21.742 12.725 21.8295C12.6376 21.9169 12.5339 21.9863 12.4197 22.0336C12.3055 22.0809 12.1831 22.1053 12.0595 22.1053C11.9359 22.1053 11.8135 22.081 11.6992 22.0337C11.585 21.9864 11.4812 21.9171 11.3938 21.8297L10.782 21.2179C10.9504 20.9536 11.0446 20.649 11.0549 20.3358C11.0652 20.0226 10.991 19.7124 10.8403 19.4376C10.6896 19.1629 10.4678 18.9337 10.1982 18.774C9.92852 18.6144 9.62092 18.5302 9.30755 18.5301C9.25342 18.5301 9.19972 18.5328 9.14646 18.5377C9.1513 18.4844 9.154 18.4307 9.154 18.3766C9.15397 17.9129 8.96977 17.4683 8.64192 17.1404C8.31407 16.8126 7.86942 16.6283 7.40577 16.6283C7.35135 16.6283 7.29734 16.631 7.24381 16.6359C7.26779 16.3802 7.23505 16.1224 7.14793 15.8808C7.06081 15.6392 6.92146 15.4198 6.73982 15.2383C6.55818 15.0567 6.33872 14.9175 6.09708 14.8305C5.85545 14.7435 5.5976 14.7109 5.34191 14.735C5.36432 14.4979 5.33795 14.2587 5.26443 14.0322C5.19092 13.8057 5.0718 13.5966 4.91443 13.4178C4.75706 13.2391 4.56476 13.0945 4.34937 12.9928C4.13399 12.8912 3.90009 12.8348 3.66206 12.827C3.59679 12.4598 3.57296 12.0866 3.59101 11.7141C3.61204 11.6948 3.63294 11.6753 3.65331 11.6549L8.25572 7.05251C8.27612 7.03211 8.29566 7.01119 8.31499 6.99015C8.39389 6.98644 8.47378 6.9839 8.55504 6.9839C9.25692 6.98426 9.95084 7.13251 10.5916 7.41899L8.04029 10.2706C7.82677 10.5094 7.71274 10.8209 7.72161 11.1411C7.73048 11.4614 7.86157 11.7661 8.08799 11.9927C8.51767 12.4214 9.09983 12.6621 9.70677 12.6621C10.3137 12.6621 10.8959 12.4213 11.3255 11.9926L13.4776 9.84012L14.706 11.0684C15.6714 12.0338 16.6368 12.9992 17.602 13.9647L17.6032 13.9657L18.4305 14.793C18.5182 14.8802 18.5877 14.9839 18.6351 15.0982C18.6824 15.2124 18.7066 15.3349 18.7063 15.4586ZM18.8362 12.3181C18.5707 12.6327 18.2685 12.9145 17.936 13.1575C17.0496 12.2707 16.163 11.3841 15.2764 10.4978L13.7628 8.98423C13.6871 8.90858 13.5845 8.86608 13.4775 8.86609C13.3705 8.8661 13.2679 8.90861 13.1922 8.98428L10.755 11.4221C10.4768 11.6997 10.0998 11.8556 9.70676 11.8556C9.31374 11.8556 8.93676 11.6997 8.65853 11.4221C8.57786 11.3413 8.53117 11.2328 8.52804 11.1187C8.5249 11.0046 8.56556 10.8936 8.64166 10.8086L11.832 7.24272C12.0248 7.02752 12.2608 6.85535 12.5246 6.73745C12.7884 6.61955 13.074 6.55856 13.3629 6.55845H14.1261C14.2209 6.7407 14.3432 6.90732 14.4885 7.05251L19.0909 11.6549C19.1357 11.6997 19.1823 11.7416 19.2301 11.7813C19.1106 11.9686 18.979 12.1479 18.8362 12.3181ZM21.3731 11.0843C21.146 11.311 20.8382 11.4383 20.5173 11.4383C20.1964 11.4383 19.8887 11.311 19.6615 11.0843L15.0591 6.48191C14.8325 6.25477 14.7052 5.94699 14.7052 5.6261C14.7052 5.30522 14.8325 4.99744 15.0591 4.77029L15.303 4.52641L21.5512 10.9063L21.3731 11.0843Z" fill="#FC7901"/>
</g>
<defs>
<clipPath id="clip0_1_7342">
<rect width="24" height="24" fill="white"/>
</clipPath>
</defs>
</svg>
