<svg width="110" height="46" viewBox="0 0 110 46" fill="none" xmlns="http://www.w3.org/2000/svg">
<path d="M103.751 44.6388L87.5489 0.0294366L87.5378 0H87.218L83.8815 9.16711L77.8073 25.8559L77.7931 25.8427C75.6878 23.9851 72.7177 22.8239 68.9772 22.3915L67.8362 22.2737L68.968 22.1286C75.1366 21.0201 79.2832 17.1243 79.2832 12.4306C79.2832 5.99401 73.2293 1.5013 64.5575 1.5013H46.5146V1.82714H51.7575V35.0859L39.0244 0.0294366L39.0133 0H38.6935L35.357 9.16711L22.4879 44.5241L22.4087 44.5332C22.1888 44.5603 21.9712 44.5819 21.756 44.5982C21.4322 44.6236 21.1104 44.6388 20.7877 44.6388H7.78458L32.5016 1.82713L32.6853 1.50535H2.45546V14.749H2.77622C2.83307 8.29821 6.58984 1.82713 14.8901 1.82713H24.9038L0 44.9596H33.5501V32.2712H33.2294C33.1857 37.8936 29.9984 43.2339 23.0675 44.4398L22.8472 44.4774L28.1256 29.969H42.9122L48.2403 44.6388H42.9842V44.9596H63.6135V44.6388H58.3352V22.5102H64.4256C70.6236 22.5102 74.1784 25.2793 74.1784 30.105V34.0303C74.1784 34.4627 74.2078 35.0951 74.2403 35.6239V35.6432L70.9667 44.6368H66.6902V44.9575H75.5426V44.6368H71.3118L74.2931 36.4472C74.2992 36.5263 74.3022 36.574 74.3022 36.574L74.3844 37.312L74.4636 37.8002C74.961 40.8201 76.1162 43.0401 77.8956 44.3982L78.1514 44.584C79.5034 45.5239 81.1834 46 83.1476 46C85.7492 46 87.4839 45.3514 88.9162 43.8247L88.7284 43.6481C87.4088 44.8662 86.3014 45.3595 84.9138 45.3595C82.5497 45.3595 81.3123 42.4919 81.3123 39.6639V34.1643C81.3249 32.7996 81.1112 31.4423 80.6799 30.1476L80.621 29.9771V29.971H91.4366L96.7647 44.6408H91.5087V44.9616H109.361V44.6408L103.751 44.6388ZM28.2434 29.6482L35.5275 9.63607L42.7954 29.6482H28.2434ZM58.3382 22.1884V1.82713H62.9872C69.1974 1.82713 72.4761 5.51894 72.4761 12.4996C72.4761 19.9238 70.5942 22.1884 64.4256 22.1884H58.3382ZM80.4952 29.6482L80.4637 29.569C79.9831 28.3985 79.2834 27.3304 78.4021 26.4223L78.0976 26.1178L78.0651 26.0873L84.0479 9.63607L91.3158 29.6482H80.4952Z" fill="#13101E"/>
</svg>
